<?xml version="1.0" encoding="UTF-8"?>
<svg xmlns="http://www.w3.org/2000/svg" viewBox="0 0 1024 1024" role="img" aria-hidden="true">
  <path d="M900.135587 904.575981" fill="none"/>
  <path d="M980.890548 386.299221l-106.719976 0-181.378803 0-42.703043-76.043628L532.787065 84.74379l-21.359047 0-106.67482 225.511804-42.703043 76.043628L180.626194 386.299221 28.222843 386.299221l0 4.831751 60.208731 42.687991 168.825283 149.453124-38.307805 341.594238c0 10.656945 2.197619 10.656945 23.51151 10.656945l278.525592-170.812171 277.938557 170.812171c10.68705 0 10.957989 0 21.629987-10.656945L767.34523 583.272086l160.125121-137.336116 64.092195-51.899927C991.562546 383.364045 991.562546 386.299221 980.890548 386.299221zM287.361223 721.345759l309.412671-252.169219-288.083728-49.37116 437.46159 0L479.396972 661.302602l277.426782 60.043157L287.361223 721.345759z" fill="#FFFFFF"/>
</svg>
